<?xml version="1.0" encoding="UTF-8" standalone="no"?>
<!-- Created with Inkscape (http://www.inkscape.org/) -->

<svg
   xmlns:dc="http://purl.org/dc/elements/1.1/"
   xmlns:cc="http://creativecommons.org/ns#"
   xmlns:rdf="http://www.w3.org/1999/02/22-rdf-syntax-ns#"
   xmlns:svg="http://www.w3.org/2000/svg"
   xmlns="http://www.w3.org/2000/svg"
   xmlns:sodipodi="http://sodipodi.sourceforge.net/DTD/sodipodi-0.dtd"
   xmlns:inkscape="http://www.inkscape.org/namespaces/inkscape"
   width="123.46921mm"
   height="13.998439mm"
   viewBox="0 0 123.46921 13.998439"
   version="1.1"
   id="svg8"
   inkscape:version="0.92.2 5c3e80d, 2017-08-06"
   sodipodi:docname="ieee754-binary32.svg">
  <defs
     id="defs2" />
  <sodipodi:namedview
     id="base"
     pagecolor="#ffffff"
     bordercolor="#666666"
     borderopacity="1.0"
     inkscape:pageopacity="0.0"
     inkscape:pageshadow="2"
     inkscape:zoom="1.979899"
     inkscape:cx="203.92879"
     inkscape:cy="-30.241046"
     inkscape:document-units="mm"
     inkscape:current-layer="layer1"
     showgrid="false"
     fit-margin-top="0"
     fit-margin-left="0"
     fit-margin-right="0"
     fit-margin-bottom="0"
     inkscape:window-width="1680"
     inkscape:window-height="1005"
     inkscape:window-x="0"
     inkscape:window-y="1"
     inkscape:window-maximized="1" />
  <metadata
     id="metadata5">
    <rdf:RDF>
      <cc:Work
         rdf:about="">
        <dc:format>image/svg+xml</dc:format>
        <dc:type
           rdf:resource="http://purl.org/dc/dcmitype/StillImage" />
        <dc:title></dc:title>
      </cc:Work>
    </rdf:RDF>
  </metadata>
  <g
     inkscape:label="Layer 1"
     inkscape:groupmode="layer"
     id="layer1"
     transform="translate(-3.2729422,-10.946296)">
    <path
       id="path896"
       style="fill:#f6d5ff;fill-rule:evenodd;stroke:none;stroke-width:0.26458332px;stroke-linecap:butt;stroke-linejoin:miter;stroke-opacity:1"
       d="m 38.108032,16.200861 v -5.004564 h 88.384118 v 5.004564 z"
       inkscape:connector-curvature="0"
       sodipodi:nodetypes="ccccc" />
    <path
       sodipodi:nodetypes="ccccc"
       inkscape:connector-curvature="0"
       d="m 3.5229422,16.20086 v -5.004564 l 3.8427884,10e-7 v 5.004564 z"
       style="fill:#d5e5ff;fill-rule:evenodd;stroke:none;stroke-width:0.26458332px;stroke-linecap:butt;stroke-linejoin:miter;stroke-opacity:1"
       id="path894" />
    <path
       id="path900"
       style="fill:#d5ffe6;fill-rule:evenodd;stroke:none;stroke-width:0.26458332px;stroke-linecap:butt;stroke-linejoin:miter;stroke-opacity:1"
       d="m 7.3657306,16.20086 v -5.004564 l 30.7423014,10e-7 v 5.004564 z"
       inkscape:connector-curvature="0"
       sodipodi:nodetypes="ccccc" />
    <path
       id="path887"
       style="fill:none;fill-rule:evenodd;stroke:#ffffff;stroke-width:0.26458332px;stroke-linecap:butt;stroke-linejoin:miter;stroke-opacity:1"
       d="m 126.49215,11.196297 v 5.004564 m -3.84279,-5.004564 v 5.004564 m -3.84279,-5.004564 v 5.004564 m -3.84279,-5.004564 v 5.004564 M 111.121,11.196297 v 5.004564 m -3.84279,-5.004564 v 5.004564 m -3.84279,-5.004564 v 5.004564 m -3.842794,-5.004564 v 5.004564 m -3.84279,-5.004564 v 5.004564 m -3.842775,-5.004564 v 5.004564 m -3.84279,-5.004564 v 5.004564 m -3.84278,-5.004564 v 5.004564 m -3.8428,-5.004564 v 5.004564 m -3.842782,-5.004564 v 5.004564 m -3.842786,-5.004564 v 5.004564 m -3.842791,-5.004564 v 5.004564 m -3.842786,-5.004564 v 5.004564 m -3.842787,-5.004564 v 5.004564 m -3.842791,-5.004564 v 5.004564 m -3.842786,-5.004564 v 5.004564 m -3.842786,-5.004564 v 5.004564 M 45.79361,11.196297 v 5.004564 m -3.842791,-5.004564 v 5.004564 m -3.842787,-5.004564 v 5.004564 m -3.842787,-5.004564 v 5.004564 m -3.842788,-5.004564 v 5.004564 m -3.842788,-5.004564 v 5.004564 m -3.842787,-5.004564 v 5.004564 m -3.842788,-5.004564 v 5.004564 m -3.842787,-5.004564 v 5.004564 m -3.842788,-5.004564 v 5.004564 M 7.3657306,11.196297 v 5.004564 M 3.5229422,11.196296 v 5.004564"
       inkscape:connector-curvature="0" />
    <path
       id="path916"
       style="fill:none;fill-rule:evenodd;stroke:#000000;stroke-width:0.49999997;stroke-linecap:butt;stroke-linejoin:miter;stroke-miterlimit:4;stroke-dasharray:none;stroke-opacity:1"
       d="m 7.3657306,16.20086 v -5.004564 l 30.7423014,10e-7 v 5.004564 z m -3.8427884,0 v -5.004564 l 3.8427884,10e-7 v 5.004564 z m 34.5850898,1e-6 v -5.004564 h 88.384118 v 5.004564 z"
       inkscape:connector-curvature="0" />
    <path
       id="path921"
       style="fill:none;fill-rule:evenodd;stroke:#000000;stroke-width:0.26458332px;stroke-linecap:butt;stroke-linejoin:bevel;stroke-opacity:1"
       d="m 37.298899,16.846346 c 0.08702,2.081016 -12.260109,0.265884 -13.415122,0.439492 -1.155013,0.173607 -1.013862,0.736281 -1.146896,1.203334 -0.133035,-0.467053 0.0081,-1.029727 -1.146896,-1.203334 C 20.434972,17.11223 8.0878482,18.927362 8.1748633,16.846346"
       inkscape:connector-curvature="0"
       sodipodi:nodetypes="cscsc" />
    <path
       sodipodi:nodetypes="cscsc"
       inkscape:connector-curvature="0"
       d="m 125.96628,16.846346 c 0.087,2.081016 -41.36428,0.265884 -42.519293,0.439492 -1.155013,0.173607 -1.013862,0.736281 -1.146896,1.203334 -0.133035,-0.467053 0.0081,-1.029727 -1.146896,-1.203334 -1.155013,-0.173608 -42.606304,1.641524 -42.519289,-0.439492"
       style="fill:none;fill-rule:evenodd;stroke:#000000;stroke-width:0.26458332px;stroke-linecap:butt;stroke-linejoin:bevel;stroke-opacity:1"
       id="path924" />
    <path
       id="path928"
       style="fill:none;fill-rule:evenodd;stroke:#000000;stroke-width:0.26499999;stroke-linecap:butt;stroke-linejoin:bevel;stroke-miterlimit:4;stroke-dasharray:none;stroke-opacity:1"
       d="m 3.8762033,16.846346 c -0.035556,2.081016 0.6275752,0.265884 1.0995124,0.439492 0.4719373,0.173607 0.4142631,0.736281 0.4686207,1.203334 0.054358,-0.467053 -0.00332,-1.029727 0.4686207,-1.203334 0.4719372,-0.173608 1.1350687,1.641524 1.0995124,-0.439492"
       inkscape:connector-curvature="0"
       sodipodi:nodetypes="cscsc" />
    <text
       xml:space="preserve"
       style="font-style:normal;font-variant:normal;font-weight:normal;font-stretch:normal;font-size:7.10326099px;line-height:125%;font-family:'Adobe Fangsong Std';-inkscape-font-specification:'Adobe Fangsong Std';letter-spacing:0px;word-spacing:0px;fill:#000000;fill-opacity:1;stroke:none;stroke-width:0.26458332px;stroke-linecap:butt;stroke-linejoin:miter;stroke-opacity:1"
       x="3.8332157"
       y="24.838186"
       id="text932"><tspan
         sodipodi:role="line"
         id="tspan930"
         x="3.8332157"
         y="24.838186"
         style="stroke-width:0.26458332px">S</tspan></text>
    <text
       id="text936"
       y="24.838186"
       x="20.712452"
       style="font-style:normal;font-variant:normal;font-weight:normal;font-stretch:normal;font-size:7.10326099px;line-height:125%;font-family:'Adobe Fangsong Std';-inkscape-font-specification:'Adobe Fangsong Std';letter-spacing:0px;word-spacing:0px;fill:#000000;fill-opacity:1;stroke:none;stroke-width:0.26458332px;stroke-linecap:butt;stroke-linejoin:miter;stroke-opacity:1"
       xml:space="preserve"><tspan
         style="stroke-width:0.26458332px"
         y="24.838186"
         x="20.712452"
         id="tspan934"
         sodipodi:role="line">E</tspan></text>
    <text
       xml:space="preserve"
       style="font-style:normal;font-variant:normal;font-weight:normal;font-stretch:normal;font-size:7.10326099px;line-height:125%;font-family:'Adobe Fangsong Std';-inkscape-font-specification:'Adobe Fangsong Std';letter-spacing:0px;word-spacing:0px;fill:#000000;fill-opacity:1;stroke:none;stroke-width:0.26458332px;stroke-linecap:butt;stroke-linejoin:miter;stroke-opacity:1"
       x="79.121384"
       y="24.838186"
       id="text940"><tspan
         sodipodi:role="line"
         id="tspan938"
         x="79.121384"
         y="24.838186"
         style="stroke-width:0.26458332px">M</tspan></text>
  </g>
</svg>
